<?xml version="1.0" encoding="UTF-8"?>
<svg version="1.1" xmlns="http://www.w3.org/2000/svg" width="460" height="460">
<path d="M0 0 C5.22837164 4.59418269 5.22837164 4.59418269 7.08203125 6.49609375 C7.08203125 7.15609375 7.08203125 7.81609375 7.08203125 8.49609375 C7.6440625 8.71910156 8.20609375 8.94210938 8.78515625 9.171875 C11.78844902 10.90336522 13.59856523 13.03773939 15.83203125 15.68359375 C16.63125 16.60527344 17.43046875 17.52695313 18.25390625 18.4765625 C20.46243675 22.12441309 20.49113156 24.30032104 20.08203125 28.49609375 C19.06466354 31.2575204 18.72032384 32.17694746 16.08203125 33.49609375 C9.06465558 34.07128848 9.06465558 34.07128848 5.51953125 31.99609375 C2.95235578 29.36309327 0.55438581 26.62964167 -1.83984375 23.83984375 C-8.53224304 16.292025 -15.675122 9.32793939 -23.91796875 3.49609375 C-24.44342285 3.12129883 -24.96887695 2.74650391 -25.51025391 2.36035156 C-38.74769742 -7.00951444 -52.62696914 -14.07364101 -67.91796875 -19.50390625 C-68.8203125 -19.85066406 -69.72265625 -20.19742188 -70.65234375 -20.5546875 C-110.54310771 -35.14749522 -154.38766285 -29.45586454 -192.29858398 -12.22631836 C-200.04386903 -8.6246888 -207.16083045 -4.78128364 -213.91796875 0.49609375 C-220.65214597 5.49609375 -220.65214597 5.49609375 -222.91796875 5.49609375 C-222.91796875 6.15609375 -222.91796875 6.81609375 -222.91796875 7.49609375 C-224.38671875 8.9765625 -224.38671875 8.9765625 -226.41796875 10.68359375 C-227.15144531 11.31136719 -227.88492188 11.93914062 -228.640625 12.5859375 C-230.05768939 13.77452153 -231.48109829 14.9556339 -232.9140625 16.125 C-238.71780472 20.97118314 -243.28789465 26.53862639 -247.91796875 32.49609375 C-248.67335937 33.44742188 -249.42875 34.39875 -250.20703125 35.37890625 C-255.90091782 42.71638894 -260.53099641 50.34057688 -264.91796875 58.49609375 C-265.37945312 59.3365625 -265.8409375 60.17703125 -266.31640625 61.04296875 C-285.45883467 97.37700486 -288.47062438 142.93488717 -276.53857422 181.96655273 C-273.47919952 191.2948144 -269.53370607 200.06289806 -264.87304688 208.69262695 C-263.83126304 210.65981948 -262.85283858 212.65266386 -261.875 214.65234375 C-259.38748731 219.64845485 -256.22276001 224.00920408 -252.91796875 228.49609375 C-252.18578125 229.50929688 -251.45359375 230.5225 -250.69921875 231.56640625 C-240.88694422 245.29531615 -240.88694422 245.29531615 -227.91796875 255.49609375 C-227.91796875 256.15609375 -227.91796875 256.81609375 -227.91796875 257.49609375 C-227.04011719 257.90214844 -227.04011719 257.90214844 -226.14453125 258.31640625 C-223.93417633 259.48750658 -222.19511611 260.75384952 -220.29296875 262.37109375 C-219.70257813 262.86351562 -219.1121875 263.3559375 -218.50390625 263.86328125 C-216.76466296 265.65393074 -215.82764252 267.17642562 -214.91796875 269.49609375 C-215.06226635 272.95923625 -215.57234378 274.97074379 -217.48046875 277.87109375 C-220.33379149 279.77330891 -222.54156123 280.05726263 -225.953125 279.8984375 C-228.98399904 279.27780127 -230.74002479 277.60998053 -232.91796875 275.49609375 C-233.57796875 275.16609375 -234.23796875 274.83609375 -234.91796875 274.49609375 C-234.91796875 273.83609375 -234.91796875 273.17609375 -234.91796875 272.49609375 C-235.73201172 272.15578125 -235.73201172 272.15578125 -236.5625 271.80859375 C-239.62279277 270.10335599 -242.05808114 267.86862867 -244.60546875 265.49609375 C-245.13221191 265.00842529 -245.65895508 264.52075684 -246.20166016 264.01831055 C-253.39720298 257.27098963 -260.66487987 249.90103596 -265.91796875 241.49609375 C-265.91796875 240.83609375 -265.91796875 240.17609375 -265.91796875 239.49609375 C-266.57796875 239.49609375 -267.23796875 239.49609375 -267.91796875 239.49609375 C-269.2644509 237.54622114 -270.51983909 235.53309968 -271.73046875 233.49609375 C-273.91138757 229.8406682 -276.09302851 226.20904716 -278.48046875 222.68359375 C-288.00730005 207.40230059 -294.08766011 187.95239446 -297.91796875 170.49609375 C-298.0689502 169.81933594 -298.21993164 169.14257812 -298.37548828 168.4453125 C-307.95859872 123.20724208 -297.62010338 75.8444573 -273.54296875 36.93359375 C-263.73610743 21.89640639 -251.95226162 8.9697671 -238.85546875 -3.25390625 C-238.33919922 -3.74761719 -237.82292969 -4.24132812 -237.29101562 -4.75 C-232.59630187 -9.11578477 -232.59630187 -9.11578477 -228.91796875 -9.50390625 C-228.91796875 -10.16390625 -228.91796875 -10.82390625 -228.91796875 -11.50390625 C-227.41186523 -12.70556641 -227.41186523 -12.70556641 -225.2890625 -14.04296875 C-224.50901855 -14.53716309 -223.72897461 -15.03135742 -222.92529297 -15.54052734 C-222.07725098 -16.06469238 -221.22920898 -16.58885742 -220.35546875 -17.12890625 C-219.05633545 -17.93642334 -219.05633545 -17.93642334 -217.73095703 -18.76025391 C-204.86634161 -26.68550107 -192.37565023 -33.02385053 -177.91796875 -37.50390625 C-176.68264404 -37.89473389 -176.68264404 -37.89473389 -175.42236328 -38.29345703 C-113.26607832 -57.65514565 -48.87480448 -41.93942393 0 0 Z " fill="#006391" transform="translate(340.91796875,91.50390625)"/>
<path d="M0 0 C1.30904297 -0.00145523 2.61808594 -0.00291046 3.96679688 -0.00440979 C6.73067468 -0.0057902 9.49403129 0.00670292 12.2578125 0.02954102 C15.78847503 0.05792549 19.31827247 0.05518398 22.84899902 0.0424509 C26.23275546 0.03379664 29.61625811 0.04895035 33 0.0625 C34.26263672 0.05956436 35.52527344 0.05662872 36.82617188 0.05360413 C38.00759766 0.0662883 39.18902344 0.07897247 40.40625 0.09204102 C41.95795898 0.10014549 41.95795898 0.10014549 43.54101562 0.1084137 C47.05737807 0.56912028 49.4618422 1.69128835 52.5 3.49609375 C56.08882738 8.19869515 56.62046333 12.9291703 56.64526367 18.71020508 C56.65164352 19.72508499 56.65802338 20.7399649 56.66459656 21.78559875 C56.66570938 22.87213242 56.6668222 23.95866608 56.66796875 25.078125 C56.67296135 26.77034431 56.67296135 26.77034431 56.67805481 28.49674988 C56.68311228 30.88137403 56.6854635 33.26600525 56.68530273 35.65063477 C56.6874857 39.2847877 56.70564457 42.91863526 56.72460938 46.55273438 C56.7275443 48.87369688 56.72952843 51.19466083 56.73046875 53.515625 C56.73765427 54.59608597 56.74483978 55.67654694 56.75224304 56.78974915 C56.71083429 70.57642397 56.71083429 70.57642397 52.25976562 76.45458984 C47.15415354 80.12278344 40.34698223 79.21145411 34.34375 79.16015625 C32.95421932 79.1635287 31.56469153 79.16838489 30.1751709 79.1746521 C27.26997658 79.18200354 24.36555351 79.1713757 21.46044922 79.14794922 C17.74782672 79.11946024 14.03701153 79.13587384 10.32445526 79.16581154 C7.45719942 79.18393272 4.5903678 79.17810494 1.72309875 79.16517258 C0.35484093 79.16185176 -1.01345619 79.16587892 -2.38166809 79.17757034 C-14.37121216 79.25755311 -14.37121216 79.25755311 -18.25976562 76.26708984 C-21.80911388 71.87682146 -22.74889881 68.29685184 -22.7746582 62.69946289 C-22.78419022 61.55800308 -22.79372223 60.41654327 -22.80354309 59.24049377 C-22.80263168 58.01644333 -22.80172028 56.79239288 -22.80078125 55.53125 C-22.80506638 54.26518417 -22.8093515 52.99911835 -22.81376648 51.69468689 C-22.81950577 49.01905404 -22.82095008 46.34380747 -22.81567383 43.66821289 C-22.80988074 40.25079932 -22.82681387 36.83392801 -22.8500185 33.41660404 C-22.86834953 30.14232369 -22.86456952 26.86807239 -22.86328125 23.59375 C-22.872491 22.37172379 -22.88170074 21.14969757 -22.89118958 19.89064026 C-22.85080919 12.47027974 -22.60835252 7.60477006 -17.15625 2.15209961 C-12.07010026 -0.85777052 -5.69876492 -0.05070326 0 0 Z " fill="#005075" transform="translate(256.5,327.50390625)"/>
<path d="M0 0 C1.18150131 -0.00953201 2.36300262 -0.01906403 3.58030701 -0.02888489 C4.84810501 -0.02797348 6.11590302 -0.02706207 7.42211914 -0.02612305 C8.73257706 -0.03040817 10.04303497 -0.0346933 11.39320374 -0.03910828 C14.16289321 -0.04655444 16.93245517 -0.04629089 19.70214844 -0.04101562 C23.24062311 -0.03522234 26.77857411 -0.05215566 30.31696224 -0.0753603 C33.70620267 -0.09368748 37.09532949 -0.08991141 40.48461914 -0.08862305 C42.3832798 -0.10243767 42.3832798 -0.10243767 44.32029724 -0.11653137 C45.50495071 -0.11030258 46.68960419 -0.10407379 47.91015625 -0.09765625 C49.46638954 -0.09860039 49.46638954 -0.09860039 51.05406189 -0.0995636 C55.71432083 0.48848056 58.89817404 1.88275301 61.86952209 5.57019043 C63.22230633 8.75084759 63.40675609 11.09253208 63.42382812 14.54614258 C63.4365123 15.79093384 63.44919647 17.0357251 63.46226501 18.3182373 C63.46021358 19.66829597 63.45722556 21.01835349 63.45336914 22.3684082 C63.45793348 23.76176202 63.46323981 25.15511359 63.46925354 26.54846191 C63.47817222 29.46363492 63.47577543 32.37853378 63.46582031 35.29370117 C63.45432364 39.02299822 63.47455763 42.75134934 63.50373745 46.48052216 C63.5221125 49.35624158 63.52180465 52.23173475 63.51609993 55.10749817 C63.51594692 56.48217599 63.52197488 57.85686934 63.5343914 59.23149109 C63.54932358 61.1553322 63.53598278 63.0793294 63.52148438 65.00317383 C63.52131821 66.09617798 63.52115204 67.18918213 63.52098083 68.31530762 C62.89856851 71.99032014 61.58593014 73.61699322 59.01977539 76.2746582 C55.52969469 78.60137867 54.11704923 78.5364457 49.99121094 78.56518555 C48.12863899 78.5843251 48.12863899 78.5843251 46.22843933 78.60385132 C44.87112585 78.60690931 43.51381028 78.60913689 42.15649414 78.6105957 C40.76267866 78.61702419 39.36886453 78.62375259 37.97505188 78.63076782 C35.05218378 78.64274422 32.12943388 78.64644842 29.20654297 78.64526367 C25.47060316 78.64506075 21.73542639 78.67233193 17.99966717 78.70680809 C15.11963966 78.72910737 12.23979469 78.73310026 9.35968971 78.73204422 C7.98303415 78.73439682 6.60637331 78.74320125 5.22980309 78.75870895 C-6.8635052 78.88216003 -6.8635052 78.88216003 -10.74658203 76.55834961 C-14.64147408 72.57618542 -15.23059741 68.75482371 -15.27075195 63.31030273 C-15.28351166 62.13202911 -15.29627136 60.95375549 -15.30941772 59.73977661 C-15.31164337 58.47511566 -15.31386902 57.21045471 -15.31616211 55.9074707 C-15.32281891 54.59938446 -15.32947571 53.29129822 -15.33633423 51.943573 C-15.3482852 49.17808736 -15.35201732 46.41272642 -15.35083008 43.6472168 C-15.350627 40.11767977 -15.3779261 36.58894891 -15.4123745 33.05960274 C-15.44006844 29.67554757 -15.43879463 26.29163759 -15.44116211 22.9074707 C-15.45553314 21.64685822 -15.46990417 20.38624573 -15.48471069 19.08743286 C-15.44971088 12.34953988 -15.35253635 7.58369356 -10.98022461 2.2746582 C-7.25009896 0.37398711 -4.15552595 0.01846847 0 0 Z " fill="#004E71" transform="translate(342.980224609375,327.725341796875)"/>
<path d="M0 0 C1.18150131 -0.00953201 2.36300262 -0.01906403 3.58030701 -0.02888489 C4.84810501 -0.02797348 6.11590302 -0.02706207 7.42211914 -0.02612305 C8.73257706 -0.03040817 10.04303497 -0.0346933 11.39320374 -0.03910828 C14.16289321 -0.04655444 16.93245517 -0.04629089 19.70214844 -0.04101562 C23.24062311 -0.03522234 26.77857411 -0.05215566 30.31696224 -0.0753603 C33.70620267 -0.09368748 37.09532949 -0.08991141 40.48461914 -0.08862305 C42.3832798 -0.10243767 42.3832798 -0.10243767 44.32029724 -0.11653137 C45.50495071 -0.11030258 46.68960419 -0.10407379 47.91015625 -0.09765625 C49.46638954 -0.09860039 49.46638954 -0.09860039 51.05406189 -0.0995636 C54.68991079 0.35921771 56.9570707 1.25327077 60.01977539 3.2746582 C62.6910235 7.32920407 63.39865247 10.54638299 63.42382812 15.35253906 C63.4365123 16.53073715 63.44919647 17.70893524 63.46226501 18.9228363 C63.45932938 20.18233597 63.45639374 21.44183563 63.45336914 22.73950195 C63.45861099 24.04617325 63.46385284 25.35284454 63.46925354 26.69911194 C63.47816271 29.45868623 63.47578707 32.21797079 63.46582031 34.97753906 C63.45433505 38.49924637 63.47454471 42.01995027 63.50373745 45.54152584 C63.5265853 48.92006958 63.51962913 52.29838296 63.51586914 55.67700195 C63.52710312 56.93447739 63.5383371 58.19195282 63.5499115 59.48753357 C63.49629396 66.23963026 63.3116519 70.90709739 59.01977539 76.2746582 C55.69200643 78.4614844 52.88320658 78.53251283 48.95361328 78.54931641 C47.72876724 78.55884842 46.5039212 78.56838043 45.24195862 78.57820129 C43.92211472 78.57728989 42.60227081 78.57637848 41.24243164 78.57543945 C39.8700701 78.57932848 38.49770975 78.58366357 37.12535095 78.58842468 C34.25133357 78.59587879 31.37743905 78.59560155 28.50341797 78.59033203 C24.82694028 78.58453846 21.15096657 78.60146898 17.47457218 78.6246767 C14.64091571 78.63943434 11.80738004 78.64028302 8.97369194 78.63716698 C6.96128496 78.6379276 4.94889668 78.65178416 2.9365387 78.66584778 C1.7085405 78.65961899 0.4805423 78.6533902 -0.78466797 78.64697266 C-1.86292343 78.64760208 -2.94117889 78.64823151 -4.05210876 78.64888 C-8.30074238 78.10589215 -10.78458512 76.48125075 -13.76747131 73.47103882 C-15.37095728 70.56701415 -15.36789458 68.44433023 -15.38427734 65.13256836 C-15.39696152 63.89092926 -15.40964569 62.64929016 -15.42271423 61.37002563 C-15.42066241 60.0179223 -15.41767407 58.6658201 -15.41381836 57.3137207 C-15.41838174 55.92133327 -15.42368779 54.52894808 -15.42970276 53.13656616 C-15.43863139 50.21961311 -15.43621476 47.30293384 -15.42626953 44.38598633 C-15.41479406 40.65787886 -15.43496925 36.93072059 -15.46418667 33.20273781 C-15.48258515 30.32697598 -15.48224883 27.45143995 -15.47654915 24.575634 C-15.4763963 23.20178269 -15.48241046 21.82791572 -15.49484062 20.45412064 C-15.58853405 8.39879146 -15.58853405 8.39879146 -13.26171875 4.51049805 C-9.27463239 0.60319608 -5.45541945 0.0242456 0 0 Z " fill="#005278" transform="translate(155.980224609375,327.725341796875)"/>
<path d="M0 0 C1.26323593 -0.00145523 2.52647186 -0.00291046 3.82798767 -0.00440979 C6.49208687 -0.00275343 9.15474447 0.00667239 11.81860352 0.02954102 C15.22033179 0.0579541 18.62116281 0.05517379 22.0229578 0.0424509 C25.28619571 0.0337968 28.54929007 0.04894891 31.8125 0.0625 C33.02825211 0.05956436 34.24400421 0.05662872 35.49659729 0.05360413 C46.30768879 0.17408822 46.30768879 0.17408822 50.83984375 3.49609375 C54.40751103 7.23950831 55.34075692 9.5262415 55.34155273 14.67578125 C55.35093369 15.90055176 55.36031464 17.12532227 55.36997986 18.38720703 C55.35874588 19.70188965 55.3475119 21.01657227 55.3359375 22.37109375 C55.3360926 23.74202552 55.33758336 25.11295773 55.34034729 26.48388672 C55.34172923 29.35208608 55.32920876 32.21978413 55.30639648 35.08789062 C55.27801165 38.75655373 55.28075152 42.42438442 55.2934866 46.09310913 C55.30045574 48.92251645 55.29264056 51.7517328 55.28022957 54.58111572 C55.27354416 56.58905963 55.27784969 58.59703044 55.28233337 60.60498047 C55.2696492 61.82975098 55.25696503 63.05452148 55.24389648 64.31640625 C55.2384935 65.39164551 55.23309052 66.46688477 55.2275238 67.57470703 C54.66520941 71.81206146 53.04154379 74.30530235 50.03622437 77.28334045 C47.1321997 78.88682642 45.00951577 78.88376372 41.69775391 78.90014648 C40.45611481 78.91283066 39.21447571 78.92551483 37.93521118 78.93858337 C36.58310784 78.93653155 35.23100565 78.93354321 33.87890625 78.9296875 C32.48651881 78.93425089 31.09413363 78.93955693 29.70175171 78.9455719 C26.78479865 78.95450053 23.86811939 78.9520839 20.95117188 78.94213867 C17.2230644 78.9306632 13.49590614 78.95083839 9.76792336 78.98005581 C6.89216153 78.99845429 4.01662549 78.99811797 1.14081955 78.99241829 C-0.23303176 78.99226544 -1.60689873 78.9982796 -2.98069382 79.01070976 C-15.03602299 79.1044032 -15.03602299 79.1044032 -18.92431641 76.77758789 C-22.8032175 72.81948233 -23.41031474 69.0257987 -23.43481445 63.60766602 C-23.44434647 62.44618546 -23.45387848 61.2847049 -23.46369934 60.08802795 C-23.46278793 58.84210373 -23.46187653 57.5961795 -23.4609375 56.3125 C-23.46522263 55.02423813 -23.46950775 53.73597626 -23.47392273 52.40867615 C-23.48136831 49.68606441 -23.48110577 46.96358239 -23.47583008 44.2409668 C-23.47003689 40.76302274 -23.48697012 37.28561149 -23.51017475 33.80775547 C-23.5285039 30.47598184 -23.52472582 27.14432371 -23.5234375 23.8125 C-23.53725212 21.94665001 -23.53725212 21.94665001 -23.55134583 20.04310608 C-23.49068714 8.70140389 -23.49068714 8.70140389 -20.16015625 4.49609375 C-13.99962635 -0.54414891 -7.69870848 -0.07125743 0 0 Z " fill="#00567D" transform="translate(351.16015625,233.50390625)"/>
<path d="M0 0 C1.13823212 -0.0127597 2.27646423 -0.02551941 3.44918823 -0.03866577 C4.67010162 -0.04089142 5.89101501 -0.04311707 7.14892578 -0.04541016 C8.41261993 -0.05206696 9.67631409 -0.05872375 10.978302 -0.06558228 C13.64974065 -0.07570144 16.32077219 -0.08126559 18.9921875 -0.08007812 C22.40066806 -0.07987506 25.80831369 -0.10717339 29.2165966 -0.14162254 C32.48567434 -0.16932337 35.75474669 -0.1680429 39.02392578 -0.17041016 C40.24079071 -0.18478119 41.45765564 -0.19915222 42.71139526 -0.21395874 C49.35693226 -0.17823099 54.02817716 -0.07711798 59.21923828 4.29052734 C63.2145086 10.43439018 62.65402843 17.09719871 62.61767578 24.23193359 C62.62054596 25.47297348 62.62341614 26.71401337 62.62637329 27.99266052 C62.6289293 31.27676377 62.61691428 34.56043628 62.60009766 37.84448242 C62.59423859 39.85292128 62.60008458 41.86096744 62.61035156 43.86938477 C62.62890171 47.74041904 62.62663536 51.61087496 62.61767578 55.48193359 C62.62374847 56.67581192 62.62982117 57.86969025 62.63607788 59.0997467 C62.54615872 69.7318012 62.54615872 69.7318012 59.21923828 74.29052734 C55.45913253 77.87962642 53.13732982 78.79455261 47.96362305 78.82397461 C46.72205948 78.83981094 45.48049591 78.85564728 44.2013092 78.8719635 C42.85441714 78.86812162 41.50752804 78.86308234 40.16064453 78.85693359 C38.7696847 78.8621727 37.37872843 78.86845023 35.98777771 78.87571716 C33.07672372 78.88610874 30.16615891 78.88157903 27.25512695 78.86694336 C23.53468047 78.84976425 19.81577972 78.8732434 16.09550571 78.90843296 C13.22399266 78.93045389 10.35284675 78.9289543 7.48127556 78.92066765 C6.11021162 78.91985052 4.73912007 78.9266683 3.36813545 78.94143867 C-8.66634481 79.05121775 -8.66634481 79.05121775 -12.60522461 75.8762207 C-15.78287633 72.09948303 -15.91648148 70.24897093 -15.97363281 65.37548828 C-15.98969574 64.13369812 -16.00575867 62.89190796 -16.02230835 61.61248779 C-16.03379663 60.24996627 -16.04440503 58.88743709 -16.05419922 57.52490234 C-16.0595229 56.83917397 -16.06484657 56.15344559 -16.07033157 55.44693756 C-16.09706071 51.81554787 -16.11643404 48.18419249 -16.13085938 44.55273438 C-16.14418651 41.55144691 -16.17201459 38.55084135 -16.21289062 35.54980469 C-16.26229014 31.92289806 -16.28698933 28.29660886 -16.29408646 24.66938019 C-16.30078703 23.28989168 -16.31597836 21.91041631 -16.33997726 20.5311203 C-16.53905743 8.39431328 -16.53905743 8.39431328 -13.56054688 4.52197266 C-9.16922953 0.99688566 -5.58465718 0.0426542 0 0 Z " fill="#005A84" transform="translate(156.78076171875,233.70947265625)"/>
<path d="M0 0 C1.24156357 -0.01583633 2.48312714 -0.03167267 3.76231384 -0.04798889 C5.10920591 -0.04414701 6.45609501 -0.03910773 7.80297852 -0.03295898 C9.19393835 -0.03819809 10.58489462 -0.04447562 11.97584534 -0.05174255 C14.88689933 -0.06213413 17.79746414 -0.05760442 20.70849609 -0.04296875 C24.42894257 -0.02578964 28.14784333 -0.04926879 31.86811733 -0.08445835 C34.73963039 -0.10647928 37.6107763 -0.10497969 40.48234749 -0.09669304 C41.85341143 -0.09587591 43.22450297 -0.10269369 44.59548759 -0.11746407 C56.62996786 -0.22724314 56.62996786 -0.22724314 60.56884766 2.94775391 C63.74649938 6.72449158 63.88010453 8.57500368 63.93725586 13.44848633 C63.95331879 14.69027649 63.96938171 15.93206665 63.9859314 17.21148682 C63.99741967 18.57400834 64.00802808 19.93653752 64.01782227 21.29907227 C64.02314594 21.98480064 64.02846962 22.67052902 64.03395462 23.37703705 C64.06068375 27.00842674 64.08005709 30.63978212 64.09448242 34.27124023 C64.10780956 37.2725277 64.13563764 40.27313326 64.17651367 43.27416992 C64.22591319 46.90107655 64.25061237 50.52736575 64.2577095 54.15459442 C64.26441007 55.53408293 64.27960141 56.9135583 64.30360031 58.29285431 C64.50268047 70.42966133 64.50268047 70.42966133 61.52416992 74.30200195 C57.17243509 77.79531447 53.60723238 78.78079346 48.07128906 78.82397461 C46.95630539 78.83673431 45.84132172 78.84949402 44.69255066 78.86264038 C43.4966481 78.86486603 42.30074554 78.86709167 41.06860352 78.86938477 C39.82947708 78.87604156 38.59035065 78.88269836 37.31367493 78.88955688 C34.69366946 78.89967548 32.07363827 78.90437415 29.45361328 78.90405273 C26.77755718 78.90389016 24.10218533 78.91777977 21.42626953 78.94506836 C17.55683578 78.98179519 13.68819442 78.99152948 9.81860352 78.99438477 C8.62877365 79.0087558 7.43894379 79.02312683 6.21305847 79.03793335 C-0.33944899 79.00207615 -5.98388005 78.77309417 -11.25561523 74.53344727 C-15.61611534 69.16070745 -14.68686634 62.05717642 -14.65405273 55.47094727 C-14.65692291 54.20629639 -14.65979309 52.94164551 -14.66275024 51.63867188 C-14.66478882 48.96884123 -14.66079125 46.29983881 -14.64672852 43.63012695 C-14.62963691 40.22055491 -14.63948609 36.81169147 -14.65744591 33.40214539 C-14.67093746 30.13338783 -14.66147134 26.86471409 -14.65405273 23.59594727 C-14.66012543 22.37705811 -14.66619812 21.15816895 -14.67245483 19.90234375 C-14.58264807 9.06279216 -14.58264807 9.06279216 -11.25561523 4.53344727 C-7.49463256 0.94519086 -5.17402988 0.02942384 0 0 Z " fill="#005F8B" transform="translate(248.255615234375,140.466552734375)"/>
<path d="M0 0 C1.86155983 -0.00430527 1.86155983 -0.00430527 3.76072693 -0.00869751 C7.04483017 -0.01125352 10.32850269 0.0007615 13.61254883 0.01757812 C15.62098769 0.02343719 17.62903384 0.0175912 19.63745117 0.00732422 C23.50848545 -0.01122592 27.37894137 -0.00895958 31.25 0 C33.04081749 -0.00910904 33.04081749 -0.00910904 34.86781311 -0.0184021 C45.49986761 0.07151706 45.49986761 0.07151706 50.05859375 3.3984375 C53.64769283 7.15854325 54.56261902 9.48034596 54.59204102 14.65405273 C54.60787735 15.8956163 54.62371368 17.13717987 54.64002991 18.41636658 C54.63618802 19.76325864 54.63114874 21.11014774 54.625 22.45703125 C54.6302391 23.84799108 54.63651664 25.23894736 54.64378357 26.62989807 C54.65417514 29.54095206 54.64964544 32.45151687 54.63500977 35.36254883 C54.61783065 39.08299531 54.64130981 42.80189606 54.67649937 46.52217007 C54.69852029 49.39368312 54.69702071 52.26482903 54.68873405 55.13640022 C54.68791693 56.50746416 54.6947347 57.87855571 54.70950508 59.24954033 C54.81928415 71.28402059 54.81928415 71.28402059 51.64428711 75.22290039 C47.86754944 78.40055211 46.01703734 78.53415726 41.14355469 78.59130859 C39.28086945 78.61540298 39.28086945 78.61540298 37.3805542 78.63998413 C36.01803268 78.65147241 34.6555035 78.66208081 33.29296875 78.671875 C32.60724037 78.67719868 31.92151199 78.68252235 31.21500397 78.68800735 C27.58361428 78.71473649 23.9522589 78.73410982 20.32080078 78.74853516 C17.31951332 78.76186229 14.31890775 78.78969037 11.31787109 78.83056641 C7.69096447 78.87996592 4.06467527 78.90466511 0.43744659 78.91176224 C-0.94204191 78.91846281 -2.32151728 78.93365414 -3.70081329 78.95765305 C-15.83762031 79.15673321 -15.83762031 79.15673321 -19.70996094 76.17822266 C-23.20327346 71.82648783 -24.18875244 68.26128512 -24.23193359 62.7253418 C-24.2446933 61.61035812 -24.257453 60.49537445 -24.27059937 59.34660339 C-24.27282501 58.15070084 -24.27505066 56.95479828 -24.27734375 55.72265625 C-24.28400055 54.48352982 -24.29065735 53.24440338 -24.29751587 51.96772766 C-24.30763447 49.3477222 -24.31233314 46.727691 -24.31201172 44.10766602 C-24.31184914 41.43160992 -24.32573875 38.75623807 -24.35302734 36.08032227 C-24.38975417 32.21088852 -24.39948846 28.34224716 -24.40234375 24.47265625 C-24.41671478 23.28282639 -24.43108582 22.09299652 -24.44589233 20.86711121 C-24.4104776 14.39546012 -24.2938535 8.52957068 -19.94140625 3.3984375 C-13.88250656 -0.67033468 -7.09122 -0.03613093 0 0 Z " fill="#005880" transform="translate(257.94140625,233.6015625)"/>
<path d="M0 0 C1.24179016 -0.01606293 2.48358032 -0.03212585 3.76300049 -0.04867554 C5.12552201 -0.06016381 6.48805119 -0.07077222 7.85058594 -0.08056641 C8.53631432 -0.08589008 9.22204269 -0.09121376 9.92855072 -0.09669876 C13.55994041 -0.12342789 17.19129579 -0.14280123 20.82275391 -0.15722656 C23.82404137 -0.1705537 26.82464693 -0.19838178 29.82568359 -0.23925781 C33.45259022 -0.28865733 37.07887942 -0.31335651 40.70610809 -0.32045364 C42.0855966 -0.32715421 43.46507197 -0.34234555 44.84436798 -0.36634445 C56.97754297 -0.56536504 56.97754297 -0.56536504 60.85351562 2.35058594 C65.9962942 8.90115795 65.40565256 15.74071597 65.42089844 23.74755859 C65.43088364 25.57083176 65.43088364 25.57083176 65.44107056 27.43093872 C65.4511795 29.9978891 65.45588812 32.56486567 65.45556641 35.13183594 C65.45993781 39.04715507 65.49627396 42.96134509 65.53417969 46.87646484 C65.5400486 49.37515892 65.54401749 51.87385833 65.54589844 54.37255859 C65.56026947 55.53737762 65.5746405 56.70219666 65.58944702 57.90231323 C65.55355608 64.32538138 65.38391483 70.09502449 61.08496094 75.19287109 C55.02606125 79.26164328 48.23477469 78.62743953 41.14355469 78.59130859 C39.9025148 78.59417877 38.66147491 78.59704895 37.38282776 78.6000061 C34.09872452 78.60256212 30.815052 78.59054709 27.53100586 78.57373047 C25.522567 78.5678714 23.51452084 78.57371739 21.50610352 78.58398438 C17.63506924 78.60253452 13.76461332 78.60026818 9.89355469 78.59130859 C8.1027372 78.60041763 8.1027372 78.60041763 6.27574158 78.60971069 C-4.35631292 78.51979154 -4.35631292 78.51979154 -8.91503906 75.19287109 C-12.50413814 71.43276535 -13.41906433 69.11096263 -13.44848633 63.93725586 C-13.46432266 62.69569229 -13.480159 61.45412872 -13.49647522 60.17494202 C-13.49263333 58.82804995 -13.48759406 57.48116085 -13.48144531 56.13427734 C-13.48668442 54.74331751 -13.49296195 53.35236124 -13.50022888 51.96141052 C-13.51062046 49.05035653 -13.50609075 46.13979172 -13.49145508 43.22875977 C-13.47427597 39.50831329 -13.49775512 35.78941253 -13.53294468 32.06913853 C-13.55496561 29.19762547 -13.55346602 26.32647956 -13.54517937 23.45490837 C-13.54436224 22.08384443 -13.55118002 20.71275289 -13.56595039 19.34176826 C-13.67572946 7.307288 -13.67572946 7.307288 -10.50073242 3.3684082 C-6.72399475 0.19075648 -4.87348265 0.05715133 0 0 Z " fill="#00628F" transform="translate(153.9150390625,140.80712890625)"/>
<path d="M0 0 C4.40616876 3.75820277 5.75971038 8.4178279 7.2109375 13.88671875 C7.39319382 14.56398514 7.57545013 15.24125153 7.76322937 15.93904114 C8.34957326 18.1241243 8.92512643 20.31187385 9.5 22.5 C10.09873636 24.75148071 10.69948752 27.00241745 11.30036926 29.25332642 C11.69504093 30.73270407 12.08875542 32.21233744 12.48149109 33.69223022 C13.54815817 37.70171874 14.65194718 41.69552706 15.82421875 45.67578125 C16.06027832 46.48249268 16.29633789 47.2892041 16.53955078 48.12036133 C16.9517532 49.51492257 17.37238369 50.90704087 17.80419922 52.2956543 C19.19908218 57.07121721 19.76511337 61.86838064 19.125 66.8125 C14.28857423 74.97396849 4.90893714 76.26603494 -3.703125 78.4765625 C-4.61455261 78.71410248 -5.52598022 78.95164246 -6.46502686 79.19638062 C-9.35066 79.947432 -12.23778954 80.69253794 -15.125 81.4375 C-17.07822597 81.944924 -19.03135198 82.45273292 -20.984375 82.9609375 C-30.96762574 85.5559141 -30.96762574 85.5559141 -35.875 86.8125 C-36.57244324 86.99404633 -37.26988647 87.17559265 -37.98846436 87.36264038 C-40.26534367 87.90558059 -42.41086902 88.09276884 -44.75 88.1875 C-45.57242187 88.23648438 -46.39484375 88.28546875 -47.2421875 88.3359375 C-51.00622536 87.58759763 -53.42068207 85.65434181 -55.875 82.8125 C-57.23828125 79.80078125 -57.23828125 79.80078125 -58.1875 76.125 C-58.37280273 75.4345459 -58.55810547 74.7440918 -58.74902344 74.03271484 C-59.19540472 72.35688186 -59.63101787 70.6781637 -60.05908203 68.99755859 C-61.06495981 65.07096328 -62.10807697 61.15481112 -63.15234375 57.23828125 C-64.38892647 52.59597864 -65.62283548 47.953066 -66.84106445 43.3059082 C-67.03354263 42.57216476 -67.22602081 41.83842133 -67.42433167 41.08244324 C-67.7894579 39.68911803 -68.15378504 38.2955831 -68.51719666 36.90180969 C-69.23260547 34.17304769 -69.98254033 31.48987901 -70.875 28.8125 C-71.18359375 26.796875 -71.18359375 26.796875 -71.3125 24.5625 C-71.37308594 23.83546875 -71.43367188 23.1084375 -71.49609375 22.359375 C-70.47175224 18.15893056 -68.22188785 15.50044256 -64.875 12.8125 C-61.27961214 11.15110927 -57.59329352 10.23403878 -53.75 9.3125 C-52.12771484 8.8937561 -52.12771484 8.8937561 -50.47265625 8.46655273 C-48.15743862 7.87269941 -45.83926645 7.29026814 -43.51855469 6.71826172 C-39.77534849 5.78772735 -36.04801417 4.80710174 -32.3203125 3.81640625 C-29.83895971 3.16766974 -27.35719761 2.52049652 -24.875 1.875 C-23.71339355 1.56820312 -22.55178711 1.26140625 -21.35498047 0.9453125 C-6.68492754 -2.76116572 -6.68492754 -2.76116572 0 0 Z M-24.875 19 C-26.12325562 19.34792603 -26.12325562 19.34792603 -27.39672852 19.70288086 C-29.08630153 20.17507948 -30.77455854 20.65201376 -32.46142578 21.13378906 C-34.6642709 21.75324177 -36.87223765 22.33457611 -39.08984375 22.8984375 C-40.31832031 23.22070312 -41.54679687 23.54296875 -42.8125 23.875 C-44.43478516 24.29458984 -44.43478516 24.29458984 -46.08984375 24.72265625 C-49.44804799 26.03673617 -51.00396673 26.68108401 -52.875 29.8125 C-52.73807825 33.27632895 -51.80041345 36.48483003 -50.875 39.8125 C-50.60945313 40.83182617 -50.34390625 41.85115234 -50.0703125 42.90136719 C-49.2039373 46.17312583 -48.29512774 49.43047878 -47.375 52.6875 C-47.06691406 53.80125 -46.75882812 54.915 -46.44140625 56.0625 C-46.14105469 57.13242188 -45.84070313 58.20234375 -45.53125 59.3046875 C-45.26119141 60.26745605 -44.99113281 61.23022461 -44.71289062 62.22216797 C-43.63811996 65.68790251 -43.63811996 65.68790251 -41.875 68.8125 C-37.60864856 70.46824158 -34.09842546 69.38360524 -29.78125 68.265625 C-29.11210571 68.09375671 -28.44296143 67.92188843 -27.75354004 67.74481201 C-26.34361953 67.37997894 -24.93505892 67.00985427 -23.52783203 66.63476562 C-21.38525922 66.0652271 -19.23825122 65.51581414 -17.08984375 64.96875 C-7.76094482 62.89612869 -7.76094482 62.89612869 0.125 57.8125 C0.04566611 50.38510599 -1.83197584 43.24975804 -3.75 36.125 C-4.13478516 34.63516602 -4.13478516 34.63516602 -4.52734375 33.11523438 C-5.26351469 30.3314724 -6.04777082 27.57045482 -6.875 24.8125 C-7.0905957 24.07692871 -7.30619141 23.34135742 -7.52832031 22.58349609 C-8.20547762 20.43791309 -8.20547762 20.43791309 -9.875 17.8125 C-14.96189601 15.73080892 -19.81645679 17.5384847 -24.875 19 Z " fill="#005D88" transform="translate(402.875,129.1875)"/>
</svg>
