<svg id="visual" viewBox="0 0 900 600" width="900" height="600" xmlns="http://www.w3.org/2000/svg" xmlns:xlink="http://www.w3.org/1999/xlink" version="1.1"><rect x="0" y="0" width="900" height="600" fill="#001220"></rect><path d="M0 157L21.5 167.7C43 178.3 86 199.7 128.8 204.8C171.7 210 214.3 199 257.2 200.3C300 201.7 343 215.3 385.8 211.2C428.7 207 471.3 185 514.2 179C557 173 600 183 642.8 194.3C685.7 205.7 728.3 218.3 771.2 214C814 209.7 857 188.3 878.5 177.7L900 167L900 0L878.5 0C857 0 814 0 771.2 0C728.3 0 685.7 0 642.8 0C600 0 557 0 514.2 0C471.3 0 428.7 0 385.8 0C343 0 300 0 257.2 0C214.3 0 171.7 0 128.8 0C86 0 43 0 21.5 0L0 0Z" fill="#c62368"></path><path d="M0 165L21.5 160.3C43 155.7 86 146.3 128.8 148.5C171.7 150.7 214.3 164.3 257.2 167.7C300 171 343 164 385.8 162.3C428.7 160.7 471.3 164.3 514.2 163.5C557 162.7 600 157.3 642.8 152.3C685.7 147.3 728.3 142.7 771.2 145.7C814 148.7 857 159.3 878.5 164.7L900 170L900 0L878.5 0C857 0 814 0 771.2 0C728.3 0 685.7 0 642.8 0C600 0 557 0 514.2 0C471.3 0 428.7 0 385.8 0C343 0 300 0 257.2 0C214.3 0 171.7 0 128.8 0C86 0 43 0 21.5 0L0 0Z" fill="#d53867"></path><path d="M0 130L21.5 130.5C43 131 86 132 128.8 135.3C171.7 138.7 214.3 144.3 257.2 148.7C300 153 343 156 385.8 146.7C428.7 137.3 471.3 115.7 514.2 104.2C557 92.7 600 91.3 642.8 97.7C685.7 104 728.3 118 771.2 121.7C814 125.3 857 118.7 878.5 115.3L900 112L900 0L878.5 0C857 0 814 0 771.2 0C728.3 0 685.7 0 642.8 0C600 0 557 0 514.2 0C471.3 0 428.7 0 385.8 0C343 0 300 0 257.2 0C214.3 0 171.7 0 128.8 0C86 0 43 0 21.5 0L0 0Z" fill="#e34c67"></path><path d="M0 117L21.5 111.8C43 106.7 86 96.3 128.8 86.2C171.7 76 214.3 66 257.2 66.2C300 66.3 343 76.7 385.8 83.7C428.7 90.7 471.3 94.3 514.2 94.3C557 94.3 600 90.7 642.8 92.3C685.7 94 728.3 101 771.2 97.5C814 94 857 80 878.5 73L900 66L900 0L878.5 0C857 0 814 0 771.2 0C728.3 0 685.7 0 642.8 0C600 0 557 0 514.2 0C471.3 0 428.7 0 385.8 0C343 0 300 0 257.2 0C214.3 0 171.7 0 128.8 0C86 0 43 0 21.5 0L0 0Z" fill="#ef5f67"></path><path d="M0 30L21.5 36.3C43 42.7 86 55.3 128.8 61.2C171.7 67 214.3 66 257.2 65C300 64 343 63 385.8 56.5C428.7 50 471.3 38 514.2 38.2C557 38.3 600 50.7 642.8 57.3C685.7 64 728.3 65 771.2 64C814 63 857 60 878.5 58.5L900 57L900 0L878.5 0C857 0 814 0 771.2 0C728.3 0 685.7 0 642.8 0C600 0 557 0 514.2 0C471.3 0 428.7 0 385.8 0C343 0 300 0 257.2 0C214.3 0 171.7 0 128.8 0C86 0 43 0 21.5 0L0 0Z" fill="#fa7268"></path></svg>