<svg id="visual" viewBox="0 0 900 600" width="900" height="600" xmlns="http://www.w3.org/2000/svg" xmlns:xlink="http://www.w3.org/1999/xlink" version="1.1"><rect x="0" y="0" width="900" height="600" fill="#001220"></rect><path d="M0 350L21.5 352.3C43 354.7 86 359.3 128.8 369.3C171.7 379.3 214.3 394.7 257.2 403C300 411.3 343 412.7 385.8 414C428.7 415.3 471.3 416.7 514.2 410C557 403.3 600 388.7 642.8 379.2C685.7 369.7 728.3 365.3 771.2 372.2C814 379 857 397 878.5 406L900 415L900 601L878.5 601C857 601 814 601 771.2 601C728.3 601 685.7 601 642.8 601C600 601 557 601 514.2 601C471.3 601 428.7 601 385.8 601C343 601 300 601 257.2 601C214.3 601 171.7 601 128.8 601C86 601 43 601 21.5 601L0 601Z" fill="#c62368"></path><path d="M0 473L21.5 461.5C43 450 86 427 128.8 416.7C171.7 406.3 214.3 408.7 257.2 420.2C300 431.7 343 452.3 385.8 461.7C428.7 471 471.3 469 514.2 467.3C557 465.7 600 464.3 642.8 453.3C685.7 442.3 728.3 421.7 771.2 416.2C814 410.7 857 420.3 878.5 425.2L900 430L900 601L878.5 601C857 601 814 601 771.2 601C728.3 601 685.7 601 642.8 601C600 601 557 601 514.2 601C471.3 601 428.7 601 385.8 601C343 601 300 601 257.2 601C214.3 601 171.7 601 128.8 601C86 601 43 601 21.5 601L0 601Z" fill="#d53867"></path><path d="M0 456L21.5 455.3C43 454.7 86 453.3 128.8 454C171.7 454.7 214.3 457.3 257.2 467.2C300 477 343 494 385.8 493.3C428.7 492.7 471.3 474.3 514.2 474.3C557 474.3 600 492.7 642.8 491.8C685.7 491 728.3 471 771.2 464.2C814 457.3 857 463.7 878.5 466.8L900 470L900 601L878.5 601C857 601 814 601 771.2 601C728.3 601 685.7 601 642.8 601C600 601 557 601 514.2 601C471.3 601 428.7 601 385.8 601C343 601 300 601 257.2 601C214.3 601 171.7 601 128.8 601C86 601 43 601 21.5 601L0 601Z" fill="#e34c67"></path><path d="M0 512L21.5 508.3C43 504.7 86 497.3 128.8 493.2C171.7 489 214.3 488 257.2 494.7C300 501.3 343 515.7 385.8 519.5C428.7 523.3 471.3 516.7 514.2 517.8C557 519 600 528 642.8 533.3C685.7 538.7 728.3 540.3 771.2 537.8C814 535.3 857 528.7 878.5 525.3L900 522L900 601L878.5 601C857 601 814 601 771.2 601C728.3 601 685.7 601 642.8 601C600 601 557 601 514.2 601C471.3 601 428.7 601 385.8 601C343 601 300 601 257.2 601C214.3 601 171.7 601 128.8 601C86 601 43 601 21.5 601L0 601Z" fill="#ef5f67"></path><path d="M0 528L21.5 532.2C43 536.3 86 544.7 128.8 545.8C171.7 547 214.3 541 257.2 536.5C300 532 343 529 385.8 530.8C428.7 532.7 471.3 539.3 514.2 541.5C557 543.7 600 541.3 642.8 544C685.7 546.7 728.3 554.3 771.2 553.8C814 553.3 857 544.7 878.5 540.3L900 536L900 601L878.5 601C857 601 814 601 771.2 601C728.3 601 685.7 601 642.8 601C600 601 557 601 514.2 601C471.3 601 428.7 601 385.8 601C343 601 300 601 257.2 601C214.3 601 171.7 601 128.8 601C86 601 43 601 21.5 601L0 601Z" fill="#fa7268"></path></svg>