<svg id="visual" viewBox="0 0 900 200" width="900" height="200" xmlns="http://www.w3.org/2000/svg" xmlns:xlink="http://www.w3.org/1999/xlink" version="1.1"><rect x="0" y="0" width="900" height="200" fill="#001220"></rect><path d="M0 40L21.5 41.8C43 43.7 86 47.3 128.8 48.5C171.7 49.7 214.3 48.3 257.2 52.5C300 56.7 343 66.3 385.8 73.5C428.7 80.7 471.3 85.3 514.2 86.5C557 87.7 600 85.3 642.8 85.7C685.7 86 728.3 89 771.2 86.8C814 84.7 857 77.3 878.5 73.7L900 70L900 201L878.5 201C857 201 814 201 771.2 201C728.3 201 685.7 201 642.8 201C600 201 557 201 514.2 201C471.3 201 428.7 201 385.8 201C343 201 300 201 257.2 201C214.3 201 171.7 201 128.8 201C86 201 43 201 21.5 201L0 201Z" fill="#c62368"></path><path d="M0 87L21.5 89C43 91 86 95 128.8 91.3C171.7 87.7 214.3 76.3 257.2 72.7C300 69 343 73 385.8 81.3C428.7 89.7 471.3 102.3 514.2 102.3C557 102.3 600 89.7 642.8 82C685.7 74.3 728.3 71.7 771.2 68.2C814 64.7 857 60.3 878.5 58.2L900 56L900 201L878.5 201C857 201 814 201 771.2 201C728.3 201 685.7 201 642.8 201C600 201 557 201 514.2 201C471.3 201 428.7 201 385.8 201C343 201 300 201 257.2 201C214.3 201 171.7 201 128.8 201C86 201 43 201 21.5 201L0 201Z" fill="#d53867"></path><path d="M0 143L21.5 142.8C43 142.7 86 142.3 128.8 139C171.7 135.7 214.3 129.3 257.2 129.3C300 129.3 343 135.7 385.8 133.3C428.7 131 471.3 120 514.2 111.3C557 102.7 600 96.3 642.8 94.2C685.7 92 728.3 94 771.2 101.5C814 109 857 122 878.5 128.5L900 135L900 201L878.5 201C857 201 814 201 771.2 201C728.3 201 685.7 201 642.8 201C600 201 557 201 514.2 201C471.3 201 428.7 201 385.8 201C343 201 300 201 257.2 201C214.3 201 171.7 201 128.8 201C86 201 43 201 21.5 201L0 201Z" fill="#e34c67"></path><path d="M0 123L21.5 127.5C43 132 86 141 128.8 147.7C171.7 154.3 214.3 158.7 257.2 157.7C300 156.7 343 150.3 385.8 145C428.7 139.7 471.3 135.3 514.2 131C557 126.7 600 122.3 642.8 125.5C685.7 128.7 728.3 139.3 771.2 141.7C814 144 857 138 878.5 135L900 132L900 201L878.5 201C857 201 814 201 771.2 201C728.3 201 685.7 201 642.8 201C600 201 557 201 514.2 201C471.3 201 428.7 201 385.8 201C343 201 300 201 257.2 201C214.3 201 171.7 201 128.8 201C86 201 43 201 21.5 201L0 201Z" fill="#ef5f67"></path><path d="M0 170L21.5 171.5C43 173 86 176 128.8 177.5C171.7 179 214.3 179 257.2 174.7C300 170.3 343 161.7 385.8 159C428.7 156.3 471.3 159.7 514.2 161C557 162.3 600 161.7 642.8 160.3C685.7 159 728.3 157 771.2 155.8C814 154.7 857 154.3 878.5 154.2L900 154L900 201L878.5 201C857 201 814 201 771.2 201C728.3 201 685.7 201 642.8 201C600 201 557 201 514.2 201C471.3 201 428.7 201 385.8 201C343 201 300 201 257.2 201C214.3 201 171.7 201 128.8 201C86 201 43 201 21.5 201L0 201Z" fill="#fa7268"></path></svg>